<?xml version="1.0" standalone="no"?><!DOCTYPE svg PUBLIC "-//W3C//DTD SVG 1.1//EN" "http://www.w3.org/Graphics/SVG/1.1/DTD/svg11.dtd"><svg t="1490087222602" class="icon" style="" viewBox="0 0 1024 1024" version="1.1" xmlns="http://www.w3.org/2000/svg" p-id="4299" xmlns:xlink="http://www.w3.org/1999/xlink" width="32" height="32"><defs><style type="text/css"></style></defs><path d="M448 554.666667c-6.4 0-10.666667 2.133333-14.933333 6.4L85.333333 908.8 85.333333 661.333333c0-12.8-8.533333-21.333333-21.333333-21.333333s-21.333333 8.533333-21.333333 21.333333l0 298.666667c0 12.8 8.533333 21.333333 21.333333 21.333333l298.666667 0c12.8 0 21.333333-8.533333 21.333333-21.333333 0-12.8-8.533333-21.333333-21.333333-21.333333L115.2 938.666667l347.733333-347.733333c4.266667-4.266667 6.4-8.533333 6.4-14.933333C469.333333 563.2 460.8 554.666667 448 554.666667zM960 42.666667 661.333333 42.666667c-12.8 0-21.333333 8.533333-21.333333 21.333333 0 12.8 8.533333 21.333333 21.333333 21.333333l247.466667 0L561.066667 433.066667C556.8 437.333333 554.666667 441.6 554.666667 448c0 12.8 8.533333 21.333333 21.333333 21.333333 6.4 0 10.666667-2.133333 14.933333-6.4L938.666667 115.2 938.666667 362.666667c0 12.8 8.533333 21.333333 21.333333 21.333333s21.333333-8.533333 21.333333-21.333333L981.333333 64C981.333333 51.2 972.8 42.666667 960 42.666667z" p-id="4300" fill="#ffffff"></path></svg>