<?xml version="1.0" standalone="no"?><!DOCTYPE svg PUBLIC "-//W3C//DTD SVG 1.1//EN" "http://www.w3.org/Graphics/SVG/1.1/DTD/svg11.dtd"><svg t="1490087245162" class="icon" style="" viewBox="0 0 1024 1024" version="1.1" xmlns="http://www.w3.org/2000/svg" p-id="4755" xmlns:xlink="http://www.w3.org/1999/xlink" width="32" height="32"><defs><style type="text/css"></style></defs><path d="M448 554.666667 149.333333 554.666667c-12.8 0-21.333333 8.533333-21.333333 21.333333 0 12.8 8.533333 21.333333 21.333333 21.333333l247.466667 0L49.066667 945.066667C44.8 949.333333 42.666667 953.6 42.666667 960c0 12.8 8.533333 21.333333 21.333333 21.333333 6.4 0 10.666667-2.133333 14.933333-6.4L426.666667 627.2 426.666667 874.666667c0 12.8 8.533333 21.333333 21.333333 21.333333s21.333333-8.533333 21.333333-21.333333L469.333333 576C469.333333 563.2 460.8 554.666667 448 554.666667zM981.333333 64c0-12.8-8.533333-21.333333-21.333333-21.333333-6.4 0-10.666667 2.133333-14.933333 6.4L597.333333 396.8 597.333333 149.333333c0-12.8-8.533333-21.333333-21.333333-21.333333s-21.333333 8.533333-21.333333 21.333333l0 298.666667c0 12.8 8.533333 21.333333 21.333333 21.333333l298.666667 0c12.8 0 21.333333-8.533333 21.333333-21.333333s-8.533333-21.333333-21.333333-21.333333L627.2 426.666667 974.933333 78.933333C979.2 74.666667 981.333333 70.4 981.333333 64z" p-id="4756" fill="#ffffff"></path></svg>