<?xml version="1.0" standalone="no"?><!DOCTYPE svg PUBLIC "-//W3C//DTD SVG 1.1//EN" "http://www.w3.org/Graphics/SVG/1.1/DTD/svg11.dtd"><svg t="1492161866430" class="icon" style="" viewBox="0 0 1024 1024" version="1.1" xmlns="http://www.w3.org/2000/svg" p-id="1230" xmlns:xlink="http://www.w3.org/1999/xlink" width="32" height="32"><defs><style type="text/css"></style></defs><path d="M686.480358 119.560026c0-32.377408 26.325575-58.644655 58.644655-58.644655 32.386618 0 58.645678 26.420743 58.645678 58.644655l0 781.930779c0 32.376385-26.325575 58.644655-58.645678 58.644655-32.385595 0-58.644655-26.419719-58.644655-58.644655L686.480358 119.560026zM217.321072 119.560026c0-32.377408 26.325575-58.644655 58.645678-58.644655 32.385595 0 58.644655 26.420743 58.644655 58.644655l0 781.930779c0 32.376385-26.325575 58.644655-58.644655 58.644655-32.385595 0-58.645678-26.419719-58.645678-58.644655L217.321072 119.560026z" p-id="1231" fill="#ffffff"></path></svg>