<?xml version="1.0" standalone="no"?><!DOCTYPE svg PUBLIC "-//W3C//DTD SVG 1.1//EN" "http://www.w3.org/Graphics/SVG/1.1/DTD/svg11.dtd"><svg t="1492162021457" class="icon" style="" viewBox="0 0 1024 1024" version="1.1" xmlns="http://www.w3.org/2000/svg" p-id="2040" xmlns:xlink="http://www.w3.org/1999/xlink" width="32" height="32"><defs><style type="text/css"></style></defs><path d="M299.73713 304.437687c-3.847631-3.721765-9.137101-6.064113-14.97097-6.064113L94.669638 298.373575c-12.085246 0-21.51399 9.492188-21.51399 21.242813L73.155648 705.331193c0 11.499915 9.638521 21.243837 21.51399 21.243837l190.097546 0c5.059226 0 9.658987-1.673106 13.297864-4.474918L647.398248 960.619484l0-3.009544c1.923816 2.675946 5.059226 4.472871 8.614192 4.472871 5.666046 0 10.579963-4.808516 10.579963-10.746762l0-877.766474c0-5.89629-4.747117-10.705829-10.579963-10.705829-3.177366 0-6.125511 1.506307-8.112772 3.847631L299.73713 304.437687zM855.100754 245.727541c-17.667382 1.839905-30.463826 17.521049-28.644387 34.958186 0.167822 1.589195 0.564865 3.052522 0.961908 4.51585l1.421372 4.223185-0.082888 0.125867c27.347858 56.995085 45.871747 119.302153 52.855812 185.664583 9.617032 91.369987-3.388167 179.851181-33.997302 260.390495l0.041956 0.041956-0.669242 2.340301 0.669242 0.251733c-0.041956 0.083911-0.041956 0.167822-0.083911 0.209778l-0.710175 0-1.673106 5.812379-1.651616 5.812379c-0.815575 2.843768-0.627287 8.196683-0.648776 8.280594l0.334621 2.63399c1.839905 17.47807 18.085914 27.723412 35.731806 25.88453 7.653307-0.795109 14.44806-4.516874 19.528775-9.827833 0.063445-0.041956 0.105401-0.167822 0.146333-0.209778 0.753153-0.793062 1.213641-1.880837 1.88186-2.759857 3.2623-5.686513 7.255241-16.685008 7.255241-16.685008 33.642215-89.109504 48.235584-187.336666 37.614689-288.281729-7.653307-72.927963-27.473725-141.924383-57.329706-204.690916l-0.376577 0.167822C882.238834 252.250094 869.31857 244.221234 855.100754 245.727541z" p-id="2041" fill="#ffffff"></path></svg>